<?xml version="1.0" encoding="UTF-8"?>
<svg xmlns="http://www.w3.org/2000/svg" xmlns:xlink="http://www.w3.org/1999/xlink" width="35px" height="35px" viewBox="0 0 25 25" version="1.1">
<g id="surface1">
<path style=" stroke:none;fill-rule:nonzero;fill:rgb(0%,0%,0%);fill-opacity:1;" d="M 15.816406 14.269531 C 15.816406 16.101562 14.332031 17.585938 12.5 17.585938 C 10.667969 17.585938 9.183594 16.101562 9.183594 14.269531 C 9.183594 12.4375 10.667969 10.953125 12.5 10.953125 C 14.332031 10.953125 15.816406 12.4375 15.816406 14.269531 Z M 22.601562 5.957031 C 23.925781 5.957031 25 7.03125 25 8.355469 L 25 19.964844 C 25 21.378906 23.855469 22.523438 22.445312 22.523438 L 2.554688 22.523438 C 1.144531 22.523438 0 21.378906 0 19.964844 L 0 8.355469 C 0 7.03125 1.074219 5.957031 2.398438 5.957031 L 7.191406 5.957031 L 7.417969 5.003906 C 7.761719 3.523438 9.082031 2.476562 10.601562 2.476562 L 14.40625 2.476562 C 15.925781 2.476562 17.242188 3.523438 17.585938 5.003906 L 17.808594 5.957031 Z M 5 9.417969 C 5 8.753906 4.460938 8.214844 3.796875 8.214844 C 3.132812 8.214844 2.59375 8.753906 2.59375 9.417969 C 2.59375 10.078125 3.132812 10.617188 3.792969 10.617188 C 4.460938 10.625 5 10.085938 5 9.417969 Z M 18.414062 14.269531 C 18.414062 11.003906 15.765625 8.355469 12.5 8.355469 C 9.234375 8.355469 6.585938 11.003906 6.585938 14.269531 C 6.585938 17.535156 9.234375 20.183594 12.5 20.183594 C 15.765625 20.183594 18.414062 17.535156 18.414062 14.269531 Z M 18.414062 14.269531 "/>
</g>
</svg>